<mxfile host="app.diagrams.net" modified="2020-11-06T03:08:22.272Z" agent="5.0 (Macintosh; Intel Mac OS X 10_14_6) AppleWebKit/537.36 (KHTML, like Gecko) Chrome/86.0.4240.111 Safari/537.36" etag="ZlX_g7VW5t4ZPy-9wSxJ" version="13.7.5" type="github">
  <diagram id="LUMRh5OlZpuZEt3NDZdp" name="Page-1">
    <mxGraphModel dx="1426" dy="803" grid="1" gridSize="10" guides="1" tooltips="1" connect="1" arrows="1" fold="1" page="1" pageScale="1" pageWidth="827" pageHeight="1169" math="0" shadow="0">
      <root>
        <mxCell id="0" />
        <mxCell id="1" parent="0" />
        <mxCell id="xKzn0QDxyfaIzEWa7lP7-2" value="" style="rounded=1;whiteSpace=wrap;html=1;" parent="1" vertex="1">
          <mxGeometry x="50" y="270" width="720" height="60" as="geometry" />
        </mxCell>
        <mxCell id="xKzn0QDxyfaIzEWa7lP7-3" value="Dts-full" style="rounded=0;whiteSpace=wrap;html=1;fillColor=#0066CC;" parent="1" vertex="1">
          <mxGeometry x="90" y="285" width="270" height="30" as="geometry" />
        </mxCell>
        <mxCell id="xKzn0QDxyfaIzEWa7lP7-4" value="Dts-delta" style="rounded=0;whiteSpace=wrap;html=1;fillColor=#0066CC;" parent="1" vertex="1">
          <mxGeometry x="450" y="285" width="270" height="30" as="geometry" />
        </mxCell>
        <mxCell id="xKzn0QDxyfaIzEWa7lP7-7" value="" style="rounded=1;whiteSpace=wrap;html=1;" parent="1" vertex="1">
          <mxGeometry x="50" y="360" width="350" height="260" as="geometry" />
        </mxCell>
        <mxCell id="xKzn0QDxyfaIzEWa7lP7-9" value="" style="rounded=1;whiteSpace=wrap;html=1;" parent="1" vertex="1">
          <mxGeometry x="50" y="640" width="710" height="120" as="geometry" />
        </mxCell>
        <mxCell id="xKzn0QDxyfaIzEWa7lP7-11" value="" style="html=1;shadow=0;dashed=0;align=center;verticalAlign=middle;shape=mxgraph.arrows2.arrow;dy=0.5;dx=22;direction=south;notch=0;fillColor=#FF9933;strokeColor=none;" parent="1" vertex="1">
          <mxGeometry x="202" y="315" width="40" height="45" as="geometry" />
        </mxCell>
        <mxCell id="xKzn0QDxyfaIzEWa7lP7-8" value="" style="rounded=1;whiteSpace=wrap;html=1;" parent="1" vertex="1">
          <mxGeometry x="412" y="360" width="348" height="260" as="geometry" />
        </mxCell>
        <mxCell id="xKzn0QDxyfaIzEWa7lP7-14" value="" style="rounded=1;whiteSpace=wrap;html=1;strokeColor=#b85450;fillColor=#f8cecc;opacity=50;" parent="1" vertex="1">
          <mxGeometry x="50" y="440" width="710" height="150" as="geometry" />
        </mxCell>
        <mxCell id="xKzn0QDxyfaIzEWa7lP7-16" value="Data Files" style="rounded=0;whiteSpace=wrap;html=1;fillColor=#00CC66;" parent="1" vertex="1">
          <mxGeometry x="90" y="394" width="270" height="30" as="geometry" />
        </mxCell>
        <mxCell id="xKzn0QDxyfaIzEWa7lP7-17" value="Kafka Messages" style="rounded=0;whiteSpace=wrap;html=1;fillColor=#00CC66;" parent="1" vertex="1">
          <mxGeometry x="455" y="393" width="265" height="30" as="geometry" />
        </mxCell>
        <mxCell id="f2b8wQUxbWhwlR0vjk2G-1" value="hadoop" style="rounded=0;whiteSpace=wrap;html=1;strokeColor=none;fillColor=#FFFFFF;" vertex="1" parent="1">
          <mxGeometry x="70" y="370" width="120" height="20" as="geometry" />
        </mxCell>
        <mxCell id="f2b8wQUxbWhwlR0vjk2G-2" value="全量索引任务&lt;span style=&quot;color: rgba(0 , 0 , 0 , 0) ; font-family: monospace ; font-size: 0px&quot;&gt;%3CmxGraphModel%3E%3Croot%3E%3CmxCell%20id%3D%220%22%2F%3E%3CmxCell%20id%3D%221%22%20parent%3D%220%22%2F%3E%3CmxCell%20id%3D%222%22%20value%3D%22hadoop%22%20style%3D%22rounded%3D0%3BwhiteSpace%3Dwrap%3Bhtml%3D1%3BfillColor%3D%2300CC66%3B%22%20vertex%3D%221%22%20parent%3D%221%22%3E%3CmxGeometry%20x%3D%2270%22%20y%3D%22370%22%20width%3D%22120%22%20height%3D%2220%22%20as%3D%22geometry%22%2F%3E%3C%2FmxCell%3E%3C%2Froot%3E%3C%2FmxGraphModel%3E&lt;/span&gt;" style="rounded=0;whiteSpace=wrap;html=1;fillColor=#FFFFFF;strokeColor=none;" vertex="1" parent="1">
          <mxGeometry x="260" y="370" width="120" height="20" as="geometry" />
        </mxCell>
        <mxCell id="f2b8wQUxbWhwlR0vjk2G-3" value="flink" style="rounded=0;whiteSpace=wrap;html=1;strokeColor=none;fillColor=#FFFFFF;" vertex="1" parent="1">
          <mxGeometry x="430" y="369" width="120" height="20" as="geometry" />
        </mxCell>
        <mxCell id="f2b8wQUxbWhwlR0vjk2G-4" value="增量索引任务" style="rounded=0;whiteSpace=wrap;html=1;strokeColor=none;fillColor=#FFFFFF;" vertex="1" parent="1">
          <mxGeometry x="619" y="367" width="120" height="20" as="geometry" />
        </mxCell>
        <mxCell id="f2b8wQUxbWhwlR0vjk2G-5" value="Solr-Map-Reduce" style="rounded=0;whiteSpace=wrap;html=1;fillColor=#FF8000;strokeColor=none;" vertex="1" parent="1">
          <mxGeometry x="90" y="457" width="270" height="30" as="geometry" />
        </mxCell>
        <mxCell id="f2b8wQUxbWhwlR0vjk2G-6" value="Indexer" style="rounded=0;whiteSpace=wrap;html=1;fillColor=#00CC66;" vertex="1" parent="1">
          <mxGeometry x="90" y="518" width="80" height="30" as="geometry" />
        </mxCell>
        <mxCell id="f2b8wQUxbWhwlR0vjk2G-7" value="Indexer" style="rounded=0;whiteSpace=wrap;html=1;fillColor=#00CC66;" vertex="1" parent="1">
          <mxGeometry x="183" y="518" width="80" height="30" as="geometry" />
        </mxCell>
        <mxCell id="f2b8wQUxbWhwlR0vjk2G-8" value="Indexer" style="rounded=0;whiteSpace=wrap;html=1;fillColor=#00CC66;" vertex="1" parent="1">
          <mxGeometry x="278" y="518" width="80" height="30" as="geometry" />
        </mxCell>
        <mxCell id="f2b8wQUxbWhwlR0vjk2G-13" value="Parser" style="rounded=0;whiteSpace=wrap;html=1;fillColor=#00CC66;" vertex="1" parent="1">
          <mxGeometry x="453.5" y="462" width="80" height="30" as="geometry" />
        </mxCell>
        <mxCell id="f2b8wQUxbWhwlR0vjk2G-14" value="Parser" style="rounded=0;whiteSpace=wrap;html=1;fillColor=#00CC66;" vertex="1" parent="1">
          <mxGeometry x="546.5" y="462" width="80" height="30" as="geometry" />
        </mxCell>
        <mxCell id="f2b8wQUxbWhwlR0vjk2G-15" value="Parser" style="rounded=0;whiteSpace=wrap;html=1;fillColor=#00CC66;" vertex="1" parent="1">
          <mxGeometry x="641.5" y="462" width="80" height="30" as="geometry" />
        </mxCell>
        <mxCell id="f2b8wQUxbWhwlR0vjk2G-16" value="Solr-Index-Builder" style="rounded=0;whiteSpace=wrap;html=1;fillColor=#FF8000;strokeColor=none;" vertex="1" parent="1">
          <mxGeometry x="453.5" y="520" width="270" height="30" as="geometry" />
        </mxCell>
        <mxCell id="f2b8wQUxbWhwlR0vjk2G-18" value="" style="html=1;shadow=0;dashed=0;align=center;verticalAlign=middle;shape=mxgraph.arrows2.arrow;dy=0.5;dx=22;direction=south;notch=0;fillColor=#FF9933;strokeColor=none;" vertex="1" parent="1">
          <mxGeometry x="565" y="315" width="40" height="45" as="geometry" />
        </mxCell>
        <mxCell id="f2b8wQUxbWhwlR0vjk2G-19" value="" style="html=1;shadow=0;dashed=0;align=center;verticalAlign=middle;shape=mxgraph.arrows2.arrow;dy=0.6;dx=18;direction=south;notch=0;fillColor=#FF9933;strokeColor=none;" vertex="1" parent="1">
          <mxGeometry x="202" y="423" width="40" height="37" as="geometry" />
        </mxCell>
        <mxCell id="f2b8wQUxbWhwlR0vjk2G-20" value="" style="html=1;shadow=0;dashed=0;align=center;verticalAlign=middle;shape=mxgraph.arrows2.arrow;dy=0.6;dx=18;direction=south;notch=0;fillColor=#FF9933;strokeColor=none;" vertex="1" parent="1">
          <mxGeometry x="567.5" y="423" width="40" height="37" as="geometry" />
        </mxCell>
        <mxCell id="f2b8wQUxbWhwlR0vjk2G-21" value="" style="html=1;shadow=0;dashed=0;align=center;verticalAlign=middle;shape=mxgraph.arrows2.arrow;dy=0.6;dx=18;direction=south;notch=0;fillColor=#FF9933;strokeColor=none;" vertex="1" parent="1">
          <mxGeometry x="473.5" y="424" width="40" height="37" as="geometry" />
        </mxCell>
        <mxCell id="f2b8wQUxbWhwlR0vjk2G-22" value="" style="html=1;shadow=0;dashed=0;align=center;verticalAlign=middle;shape=mxgraph.arrows2.arrow;dy=0.6;dx=18;direction=south;notch=0;fillColor=#FF9933;strokeColor=none;" vertex="1" parent="1">
          <mxGeometry x="661.5" y="424" width="40" height="37" as="geometry" />
        </mxCell>
        <mxCell id="f2b8wQUxbWhwlR0vjk2G-23" value="" style="html=1;shadow=0;dashed=0;align=center;verticalAlign=middle;shape=mxgraph.arrows2.arrow;dy=0.6;dx=18;direction=south;notch=0;fillColor=#FF9933;strokeColor=none;" vertex="1" parent="1">
          <mxGeometry x="110" y="481" width="40" height="37" as="geometry" />
        </mxCell>
        <mxCell id="f2b8wQUxbWhwlR0vjk2G-24" value="" style="html=1;shadow=0;dashed=0;align=center;verticalAlign=middle;shape=mxgraph.arrows2.arrow;dy=0.6;dx=18;direction=south;notch=0;fillColor=#FF9933;strokeColor=none;" vertex="1" parent="1">
          <mxGeometry x="203" y="483" width="40" height="37" as="geometry" />
        </mxCell>
        <mxCell id="f2b8wQUxbWhwlR0vjk2G-25" value="" style="html=1;shadow=0;dashed=0;align=center;verticalAlign=middle;shape=mxgraph.arrows2.arrow;dy=0.6;dx=18;direction=south;notch=0;fillColor=#FF9933;strokeColor=none;" vertex="1" parent="1">
          <mxGeometry x="300" y="481" width="40" height="37" as="geometry" />
        </mxCell>
      </root>
    </mxGraphModel>
  </diagram>
</mxfile>
